/* XPM */
static char *_519911995557[] = {
/* columns rows colors chars-per-pixel */
"156 39 2 1 ",
"  c gray26",
". c None",
/* pixels */
".................................. .................................................................................. ...................................  .",
"                                   ........                ..........               ..........              .........                                      .",
".                                  ..........            .............            ..............          ...........                                      .",
".                                  ..........             ...........             ..............          ...........                                      .",
".                                  ...........             ..........            ...............          ...........                                      .",
".                                  ............             ........            ................          ...........                                      .",
".                                  .............            .......            .................          ...........                                      .",
".                                  ..............            .....            ..................          ...........                                      .",
".                                  ..............             ...             ..................          ...........                                      .",
".           ...................... ...............             ..            ...................          ........... .............          ............  .",
".           .......................................                         ....................          ........... .............          ............. .",
".           ........................................                       .....................          .........................          ...............",
".           ........................................                      ......................          .........................          ...............",
".           .........................................                     ......................          .........................          ...............",
".           .............. ...........................                   .......................          .........................          ...............",
".                          ............................                 ........................          .........................          ...............",
".                          .............................               .........................          .........................          ...............",
".                          .............................              ..........................          .........................          ...............",
".                          ..............................             ..........................          .........................          ...............",
".                          ..............................              .........................          .........................          ...............",
".                          .............................                ........................          .........................          ...............",
".                          ............................                 ........................          .........................          ...............",
".                          ...........................                   .......................          .........................          ...............",
".           .............. ..........................                     ......................          .........................          ...............",
".           .........................................                      .....................          .........................          ...............",
".           ........................................                        ....................          .........................          ...............",
".           .......................................                         ....................          .........................          ...............",
".           ......................................             .             ...................          .........................          ...............",
".           ...................... ..............             ...             ..................          .........................          ...............",
".                                  .............             .....             .................          .........................          ...............",
".                                  .............            .......            .................          .........................          ...............",
".                                  ............            ........             ................          .........................          ...............",
".                                  ...........            ..........             ...............          .........................          ...............",
".                                  ..........             ...........             ..............          .........................          ...............",
".                                  .........             .............             .............          .........................          ...............",
".                                  ........             ..............             .............          ........................           ...............",
"                                   .......                ...........                .........              .....................              .............",
"............................................................................................................................................................",
"............................................................................................................................................................"
};
