/* XPM */
static char *_519912121810[] = {
/* columns rows colors chars-per-pixel */
"194 36 2 1 ",
"  c gray26",
". c None",
/* pixels */
"                  ..........                  ....................                  ......................                           ................................................             ",
"..              .............                .......................               ........................                              .............................................           .",
"..              .............               .......................                ........................                               ............................................           .",
"..               ............               .......................                ........................                                 ..........................................           .",
"..               ............               .......................                 .......................                                 ..........................................           .",
"..                ..........                ......................                  .......................                                  ................................... ...             .",
"..                ..........                ......................                   ......................                                   ..................................                 .",
"..                 ........                 .....................         .          ......................                                   ..................................                 .",
"..                 ........                 .....................         .          ......................           .............           ..................................                 .",
"..        .        .......        .         .....................        ...          .....................           ...............          .................................                 .",
"..        .         ......        .         ....................         ...          .....................           ...............          .................................                 .",
"..        ..        .....        ..         ....................         ...           ....................           ...............          .................................                 .",
"..        ..         ....        ..         ....................        .....          ....................           ...............          .................................     .           .",
"..        ...        ...        ...         ...................         .....          ....................           ...............          .................................  ....           .",
"..        ...         ..        ...         ...................         ......          ...................           ...............         .................................. .....           .",
"..        ....        .        ....         ..................         .......          ...................           .............           ........................................           .",
"..        ....                 ....         ..................         ........          ..................                                   ........................................           .",
"..        .....               .....         ..................        .........          ..................                                  .........................................           .",
"..        .....               .....         .................         .........          ..................                                  .........................................           .",
"..        .....              ......         .................         ..........          .................                                 ..........................................           .",
"..        ......             ......         .................        ...........          .................                               ............................................           .",
"..        ......             ......         ................         ............          ................                              .............................................           .",
"..        .......           .......         ................         ............          ................                          .................................................           .",
"..        .......           .......         ...............                                ................           ................................................................           .",
"..        ........         ........         ...............                                 ...............           ................................................................           .",
"..        ........         ........         ...............                                 ...............           ................................................................           .",
"..        .........       .........         ..............                                   ..............           ................................................................           .",
"..        .........       .........         ..............                                   ..............           ................................................................           .",
"..        .........      ..........         .............                                    ..............           ................................................................           .",
"..        ..........     ..........         .............          ................           .............           ................................................................           .",
"..        ..........    ...........         .............         ..................          .............           ................................................................           .",
"..        ...........   ...........         ............          ..................           ............           ................................................................           .",
"..        ...........   ...........         ............         ...................           ............           ................................................................           .",
"..        ............ ............         ............         ....................           ...........           ................................................................           .",
"..        ............ ...........           ..........          ....................           ...........           ................................................................           .",
"            .....................             ........            ..................             .........             ..............................................................             "
};
