/* XPM */
static char *_519912024918[] = {
/* columns rows colors chars-per-pixel */
"204 36 2 1 ",
"  c gray26",
". c None",
/* pixels */
"                  ..........                  ....................                  ......................                           .................................................         .............",
"..              .............                .......................               ........................                              ........................................                  .........",
"..              .............               .......................                ........................                               ....................................                       .......",
"..               ............               .......................                ........................                                 ...............................                            .....",
"..               ............               .......................                 .......................                                 ............................                                ....",
"..                ..........                ......................                  .......................                                  ............................                               ....",
"..                ..........                ......................                   ......................                                   ............................                               ...",
"..                 ........                 .....................         .          ......................                                   ............................            ........           ...",
"..                 ........                 .....................         .          ......................           .............           .............................        .............          ..",
"..        .        .......        .         .....................        ...          .....................           ...............          ............................      ...............          ..",
"..        .         ......        .         ....................         ...          .....................           ...............          .............................   .................          ..",
"..        ..        .....        ..         ....................         ...           ....................           ...............          .............................. ..................          ..",
"..        ..         ....        ..         ....................        .....          ....................           ...............          .............................. ..................         ...",
"..        ...        ...        ...         ...................         .....          ....................           ...............          ....................................... ........          ...",
"..        ...         ..        ...         ...................         ......          ...................           ...............         ........................................                  ....",
"..        ....        .        ....         ..................         .......          ...................           .............           ........................................                 .....",
"..        ....                 ....         ..................         ........          ..................                                   ........................................                ......",
"..        .....               .....         ..................        .........          ..................                                  .........................................                ......",
"..        .....               .....         .................         .........          ..................                                  .........................................                  ....",
"..        .....              ......         .................         ..........          .................                                 ..........................................                   ...",
"..        ......             ......         .................        ...........          .................                               ............................................                    ..",
"..        ......             ......         ................         ............          ................                              ................................... ......... .........           .",
"..        .......           .......         ................         ............          ................                          ......................................  ......... ..........          .",
"..        .......           .......         ...............                                ................           .....................................................  .....................         .",
"..        ........         ........         ...............                                 ...............           ....................................................    ....................          ",
"..        ........         ........         ...............                                 ...............           ....................................................      ..................          ",
"..        .........       .........         ..............                                   ..............           ....................................................        ...............          .",
"..        .........       .........         ..............                                   ..............           ...................................................            ..........            .",
"..        .........      ..........         .............                                    ..............           ...................................................                                  .",
"..        ..........     ..........         .............          ................           .............           ..................................................                                  ..",
"..        ..........    ...........         .............         ..................          .............           ..................................................                                  ..",
"..        ...........   ...........         ............          ..................           ............           ..................................................                                 ...",
"..        ...........   ...........         ............         ...................           ............           ................................................. ...                             ....",
"..        ............ ............         ............         ....................           ...........           .......................................................                         ......",
"..        ............ ...........           ..........          ....................           ...........           ...........................................................                   ........",
"            .....................             ........            ..................             .........             ...............................................................          ............"
};
