/* XPM */
static char *_519912042491[] = {
/* columns rows colors chars-per-pixel */
"142 36 2 1 ",
"  c gray26",
". c None",
/* pixels */
"                  ..........                  ....................                  ......................                           .........",
"..              .............                .......................               ........................                              .....",
"..              .............               .......................                ........................                               ....",
"..               ............               .......................                ........................                                 ..",
"..               ............               .......................                 .......................                                 ..",
"..                ..........                ......................                  .......................                                  .",
"..                ..........                ......................                   ......................                                   ",
"..                 ........                 .....................         .          ......................                                   ",
"..                 ........                 .....................         .          ......................           .............           ",
"..        .        .......        .         .....................        ...          .....................           ...............         ",
"..        .         ......        .         ....................         ...          .....................           ...............         ",
"..        ..        .....        ..         ....................         ...           ....................           ...............         ",
"..        ..         ....        ..         ....................        .....          ....................           ...............         ",
"..        ...        ...        ...         ...................         .....          ....................           ...............         ",
"..        ...         ..        ...         ...................         ......          ...................           ...............         ",
"..        ....        .        ....         ..................         .......          ...................           .............           ",
"..        ....                 ....         ..................         ........          ..................                                   ",
"..        .....               .....         ..................        .........          ..................                                  .",
"..        .....               .....         .................         .........          ..................                                  .",
"..        .....              ......         .................         ..........          .................                                 ..",
"..        ......             ......         .................        ...........          .................                               ....",
"..        ......             ......         ................         ............          ................                              .....",
"..        .......           .......         ................         ............          ................                          .........",
"..        .......           .......         ...............                                ................           ........................",
"..        ........         ........         ...............                                 ...............           ........................",
"..        ........         ........         ...............                                 ...............           ........................",
"..        .........       .........         ..............                                   ..............           ........................",
"..        .........       .........         ..............                                   ..............           ........................",
"..        .........      ..........         .............                                    ..............           ........................",
"..        ..........     ..........         .............          ................           .............           ........................",
"..        ..........    ...........         .............         ..................          .............           ........................",
"..        ...........   ...........         ............          ..................           ............           ........................",
"..        ...........   ...........         ............         ...................           ............           ........................",
"..        ............ ............         ............         ....................           ...........           ........................",
"..        ............ ...........           ..........          ....................           ...........           ........................",
"            .....................             ........            ..................             .........             ......................."
};
