/* XPM */
static char *_519912057682[] = {
/* columns rows colors chars-per-pixel */
"314 39 2 1 ",
"  c gray26",
". c None",
/* pixels */
"................................................................................... ................................................... ...................................  ..................................................................................................... ...................................  ..",
"                             ....................                                   .....................         .....................                                      .................                  ......................                             ...............                                      ..",
".                                .................                                  ................                    ...............                                      ...................               ........................                                ...........                                      ..",
".                                  ...............                                  ..............                          .... ......                                      ..................                ........................                                  .........                                      ..",
".                                   ..............                                  .............                                ......                                      ..................                ........................                                   ........                                      ..",
".                                    .............                                  ...........                                 .......                                      ..................                 .......................                                    .......                                      ..",
".                                    .............                                  ...........                                 .......                                      .................                  .......................                                    .......                                      ..",
".                                     ............                                  ..........                                 ........                                      .................                   ......................                                     ......                                      ..",
".                                     ............                                  .........            ............          ........                                      ................         .          ......................                                     ......                                      ..",
".           ..............             ...........           ...................... .........          ..................     ......... .............          ............  ................         .          ......................           ..............             ..... .............          ............  ..",
".           ................           ...........           ................................         .....................   ......... .............          ............. ................        ...          .....................           ................           ..... .............          ............. ..",
".           ................           ...........           ................................         ...................... ........................          .............................         ...          .....................           ................           ...................          ................",
".           ................           ...........           ................................          ..................... ........................          .............................         ...           ....................           ................           ...................          ................",
".           ................           ...........           ................................            ............................................          .............................        .....          ....................           ................           ...................          ................",
".           ................           ...........           .............. .................                    ....................................          ............................         .....          ....................           ................           ...................          ................",
".           ..............            ............                          .................                           .............................          ............................         ......          ...................           ..............            ....................          ................",
".                                     ............                          ..................                              .........................          ...........................         .......          ...................                                     ....................          ................",
".                                     ............                          ...................                               .......................          ...........................         ........          ..................                                     ....................          ................",
".                                    .............                          ....................                               ......................          ...........................        .........          ..................                                    .....................          ................",
".                                   ..............                          .......................                             .....................          ..........................         .........          ..................                                   ......................          ................",
".                                  ...............                          ..........................                           ....................          ..........................         ..........          .................                                  .......................          ................",
".                                 ................                          ..................................                   ....................          ..........................        ...........          .................                                 ........................          ................",
".                               ..................                          ..........................................            ...................          .........................         ............          ................                               ..........................          ................",
".           .......           ....................           .............. ................... ........................          ...................          .........................         ............          ................           .......           ............................          ................",
".           .......           ....................           .................................. .........................         ...................          ........................                                ................           .......           ............................          ................",
".           ........          ....................           ..................................  .......................          ...................          ........................                                 ...............           ........          ............................          ................",
".           .........          ...................           .................................     .....................          ...................          ........................                                 ...............           .........          ...........................          ................",
".           .........           ..................           .................................       ..................           ...................          .......................                                   ..............           .........           ..........................          ................",
".           ..........          ..................           ...................... .........            ............             ...................          .......................                                   ..............           ..........          ..........................          ................",
".           ...........          .................                                  .........                                    ....................          ......................                                    ..............           ...........          .........................          ................",
".           ............          ................                                  .........                                    ....................          ......................          ................           .............           ............          ........................          ................",
".           ............           ...............                                  ........                                    .....................          ......................         ..................          .............           ............           .......................          ................",
".           .............          ...............                                  ........                                   ......................          .....................          ..................           ............           .............          .......................          ................",
".           ..............          ..............                                  .......                                   .......................          .....................         ...................           ............           ..............          ......................          ................",
".           ..............           .............                                  ....... ...                             .........................          .....................         ....................           ...........           ..............           .....................          ................",
".           ..............           .............                                  ...............                      ...........................           ....................          ....................           ...........           ..............           ....................           ................",
"             ............              ..........                                   .....................           ...............................              .................            ..................             .........             ............              .................              ..............",
"..........................................................................................................................................................................................................................................................................................................................",
".........................................................................................................................................................................................................................................................................................................................."
};
