/* XPM */
static char *_519912068137[] = {
/* columns rows colors chars-per-pixel */
"288 39 2 1 ",
"  c gray26",
". c None",
/* pixels */
"................................................................................... ....................................................................................................................................................................................................... ....",
"                             ....................                                   .....................         .........................              .............              ...........                  ..........                  ............                                   ....",
".                                .................                                  ................                    .....................          .................          ...............              .............                ..............                                  ....",
".                                  ...............                                  ..............                          .... ............          .................          ...............              .............               ...............                                  ....",
".                                   ..............                                  .............                                ............          .................          ...............               ............               ...............                                  ....",
".                                    .............                                  ...........                                 .............          .................          ...............               ............               ...............                                  ....",
".                                    .............                                  ...........                                 .............          .................          ...............                ..........                ...............                                  ....",
".                                     ............                                  ..........                                 ..............          .................          ...............                ..........                ...............                                  ....",
".                                     ............                                  .........            ............          ..............          .................          ...............                 ........                 ...............                                  ....",
".           ..............             ...........           ...................... .........          ..................     ...............          .................          ...............                 ........                 ...............           ...................... ....",
".           ................           ...........           ................................         .....................   ...............          .................          ...............        .        .......        .         ...............           ...........................",
".           ................           ...........           ................................         ...................... ................          .................          ...............        .         ......        .         ...............           ...........................",
".           ................           ...........           ................................          ..................... ................          .................          ...............        ..        .....        ..         ...............           ...........................",
".           ................           ...........           ................................            ....................................          .................          ...............        ..         ....        ..         ...............           ...........................",
".           ................           ...........           .............. .................                    ............................          .................          ...............        ...        ...        ...         ...............           .............. ............",
".           ..............            ............                          .................                           .....................          .................          ...............        ...         ..        ...         ...............                          ............",
".                                     ............                          ..................                              .................          .................          ...............        ....        .        ....         ...............                          ............",
".                                     ............                          ...................                               ...............          .................          ...............        ....                 ....         ...............                          ............",
".                                    .............                          ....................                               ..............          .................          ...............        .....               .....         ...............                          ............",
".                                   ..............                          .......................                             .............          .................          ...............        .....               .....         ...............                          ............",
".                                  ...............                          ..........................                           ............          .................          ...............        .....              ......         ...............                          ............",
".                                 ................                          ..................................                   ............          .................          ...............        ......             ......         ...............                          ............",
".                               ..................                          ..........................................            ...........          .................          ...............        ......             ......         ...............                          ............",
".           .......           ....................           .............. ................... ........................          ...........          .................          ...............        .......           .......         ...............           .............. ............",
".           .......           ....................           .................................. .........................         ...........          .................          ...............        .......           .......         ...............           ...........................",
".           ........          ....................           ..................................  .......................          ...........           ...............           ...............        ........         ........         ...............           ...........................",
".           .........          ...................           .................................     .....................          ...........           ...............           ...............        ........         ........         ...............           ...........................",
".           .........           ..................           .................................       ..................           ............           .............           ................        .........       .........         ...............           ...........................",
".           ..........          ..................           ...................... .........            ............             ............             .........             ................        .........       .........         ...............           ...................... ....",
".           ...........          .................                                  .........                                    ..............                                 .................        .........      ..........         ...............                                  ....",
".           ............          ................                                  .........                                    ..............                                 .................        ..........     ..........         ...............                                  ....",
".           ............           ...............                                  ........                                    ................                               ..................        ..........    ...........         ...............                                  ....",
".           .............          ...............                                  ........                                   ..................                             ...................        ...........   ...........         ...............                                  ....",
".           ..............          ..............                                  .......                                   ....................                           ....................        ...........   ...........         ...............                                  ....",
".           ..............           .............                                  ....... ...                             .......................                         .....................        ............ ............         ...............                                  ....",
".           ..............           .............                                  ...............                      .............................                   ........................        ............ ...........           ..............                                  ....",
"             ............              ..........                                   .....................           .......................................         ...........................            .....................             ............                                   ....",
"................................................................................................................................................................................................................................................................................................",
"................................................................................................................................................................................................................................................................................................"
};
