/* XPM */
static char *_519912080600[] = {
/* columns rows colors chars-per-pixel */
"278 37 2 1 ",
"  c gray26",
". c None",
/* pixels */
"................................................................................... ...... ...................................  ......................................................................................................................................................",
"                             ....................                                   ......                                      ........              .............              ...........                             ....................                .............            ",
".                                .................                                  ......                                      ..........          .................          ..............                                .................             ................          .",
".                                  ...............                                  ......                                      ..........          .................          ..............                                  ...............             .................         .",
".                                   ..............                                  ......                                      ..........          .................          ..............                                   ..............              ................         .",
".                                    .............                                  ......                                      ..........          .................          ..............                                    .............               ...............         .",
".                                    .............                                  ......                                      ..........          .................          ..............                                    .............                ..............         .",
".                                     ............                                  ......                                      ..........          .................          ..............                                     ............                 .............         .",
".                                     ............                                  ......                                      ..........          .................          ..............                                     ............                  ............         .",
".           ..............             ...........           ...................... ...... .............          ............  ..........          .................          ..............           ..............             ...........                   ...........         .",
".           ................           ...........           ............................. .............          ............. ..........          .................          ..............           ................           ...........                    ..........         .",
".           ................           ...........           ...........................................          ........................          .................          ..............           ................           ...........                    ..........         .",
".           ................           ...........           ...........................................          ........................          .................          ..............           ................           ...........                     .........         .",
".           ................           ...........           ...........................................          ........................          .................          ..............           ................           ...........                      ........         .",
".           ................           ...........           .............. ............................          ........................          .................          ..............           ................           ...........         .             .......         .",
".           ..............            ............                          ............................          ........................          .................          ..............           ..............            ............         ..             ......         .",
".                                     ............                          ............................          ........................          .................          ..............                                     ............         ...             .....         .",
".                                     ............                          ............................          ........................          .................          ..............                                     ............         ....             ....         .",
".                                    .............                          ............................          ........................          .................          ..............                                    .............         .....             ...         .",
".                                   ..............                          ............................          ........................          .................          ..............                                   ..............         ......             ..         .",
".                                  ...............                          ............................          ........................          .................          ..............                                  ...............         .......             .         .",
".                                 ................                          ............................          ........................          .................          ..............                                 ................         ........                      .",
".                               ..................                          ............................          ........................          .................          ..............                               ..................         .........                     .",
".           .......           ....................           .............. ............................          ........................          .................          ..............           .......           ....................         ..........                    .",
".           .......           ....................           ...........................................          ........................          .................          ..............           .......           ....................         ..........                    .",
".           ........          ....................           ...........................................          ........................           ...............           ..............           ........          ....................         ...........                   .",
".           .........          ...................           ...........................................          ........................           ...............           ..............           .........          ...................         ............                  .",
".           .........           ..................           ...........................................          .........................           .............           ...............           .........           ..................         .............                 .",
".           ..........          ..................           ...................... ....................          .........................             .........             ...............           ..........          ..................         ..............                .",
".           ...........          .................                                  ....................          ..........................                                 ................           ...........          .................         ...............               .",
".           ............          ................                                  ....................          ..........................                                 ................           ............          ................         ................              .",
".           ............           ...............                                  ....................          ...........................                               .................           ............           ...............         .................             .",
".           .............          ...............                                  ....................          ............................                             ..................           .............          ...............         ..................            .",
".           ..............          ..............                                  ....................          .............................                           ...................           ..............          ..............         ...................           .",
".           ..............           .............                                  ....................          ..............................                         ....................           ..............           .............         ....................          .",
".           ..............           .............                                  ...................           .................................                   .......................           ..............           .............          ...................          .",
"             ............              ..........                                   ..................              ....................................         ...........................             ............              ..........            .................            "
};
