/* XPM */
static char *_520521578253[] = {
/* columns rows colors chars-per-pixel */
"50 50 4 1 ",
"  c black",
". c #F99000",
"X c #3FBDEC",
"o c None",
/* pixels */
"oooooooooooooooooooooooooooooooooooooooooooooooooo",
"oooooooooooooooooooooooooooooooooooooooooooooooooo",
"oooooooooooooooooooooooooooooooooooooooooooooooooo",
"oooooooooooooooooooooooooooooooooooooooooooooooooo",
"oooooooooooooooooooooooooooooooooooooooooooooooooo",
"oooooooooooooooooooooooooooooooooooooooooooooooooo",
"oooooooooooooooooooooooooooooooooooooooooooooooooo",
"ooooooooooooooooooo.......oooooooooooooooooooooooo",
"ooooooooooooooooo..........ooooooooooooooooooooooo",
"ooooooooooooooo...........oooooooooooooooooooooooo",
"oooooooooooooo..........oooooooooooooooooooooooooo",
"ooooooooooooo.......oooooooooooooooooooooooooooooo",
"oooooooooooo......oooooooooooooooooooooooooooooooo",
"ooooooooooo......ooooooooooooooooooooooooooooooooo",
"ooooooooooo.....oooooooooooooooooooooooooooooooooo",
"oooooooooo.....ooooooooooooooooooooooooooooooooooo",
"oooooooooo....oooooooooooooooooooooooooooooooooooo",
"ooooooooo.....oooooooooooooooooooooooooooooooooooo",
"ooooooooo....ooooooooooooooooooooooooooooooooooooo",
"ooooooooo....ooooooooooooooooooooooooooooooooooooo",
"ooooooooo....oooooooooo    ooooooooooooooooooooooo",
"oooooooo.....oooooooo        ooooooooooooooooooooo",
"oooooooo....ooooooooo  oooo  ooooooooooooooooooooo",
"oooooooo....oooooooo  oooooo  oooooooooooooooooooo",
"oooooooo....oooooooo  oooooo  ooooooooXXXXoooooooo",
"ooooooooo...oooooooo  oooooo  ooooooooXXXXoooooooo",
"oooooooooooooooooooo  oooooo  ooooooooXXXXoooooooo",
"ooooooooooooooooooooo  oooo  oooooooooXXXXoooooooo",
"ooooooooooooooooooooo        ooooooooXXXXXoooooooo",
"ooooooooooooooooooooooo    ooooooooooXXXXooooooooo",
"oooooooooooooooooooooooooooooooooooooXXXXooooooooo",
"ooooooooooooooooooooooooooooooooooooXXXXXooooooooo",
"ooooooooooooooooooooooooooooooooooooXXXXoooooooooo",
"oooooooooooooooooooooooooooooooooooXXXXXoooooooooo",
"ooooooooooooooooooooooooooooooooooXXXXXooooooooooo",
"oooooooooooooooooooooooooooooooooXXXXXXooooooooooo",
"oooooooooooooooooooooooooooooooXXXXXXXoooooooooooo",
"oooooooooooooooooooooooooooooXXXXXXXXooooooooooooo",
"ooooooooooooooooooooooooXXXXXXXXXXXXoooooooooooooo",
"ooooooooooooooooooooooooXXXXXXXXXXoooooooooooooooo",
"ooooooooooooooooooooooooXXXXXXXXoooooooooooooooooo",
"ooooooooooooooooooooooooXXXXXooooooooooooooooooooo",
"oooooooooooooooooooooooooooooooooooooooooooooooooo",
"oooooooooooooooooooooooooooooooooooooooooooooooooo",
"oooooooooooooooooooooooooooooooooooooooooooooooooo",
"oooooooooooooooooooooooooooooooooooooooooooooooooo",
"oooooooooooooooooooooooooooooooooooooooooooooooooo",
"oooooooooooooooooooooooooooooooooooooooooooooooooo",
"oooooooooooooooooooooooooooooooooooooooooooooooooo",
"oooooooooooooooooooooooooooooooooooooooooooooooooo"
};
