/* XPM */
static char *_520342521370[] = {
/* columns rows colors chars-per-pixel */
"77 140 2 1 ",
"  c #F99000",
". c None",
/* pixels */
".............................................................................",
".............................................................................",
".............................................................................",
".............................................................................",
".............................................................................",
".............................................................................",
".....................................          ..............................",
"..................................                 ..........................",
"................................                    .........................",
"..............................                        .......................",
".............................                           .....................",
"...........................                              ....................",
"..........................                                ...................",
".........................                                  ..................",
".......................                                     .................",
"......................                                       ................",
".....................                                        ................",
".....................                  .........              ...............",
"....................                 .............             ..............",
"...................                ................            ..............",
"..................                ..................            .............",
".................                .....................           ............",
"................                ......................           ............",
"................               ........................           ...........",
"...............               ..........................          ...........",
"...............              ............................          ..........",
"..............              .............................          ..........",
".............              ...............................         .... .....",
".............              ...............................          ..   ....",
"............         .    .................................         ...  ....",
"............        ..    .................................          ..  ....",
"...........         ..   ...................................         ..   ...",
"...........        ..    ...................................         ..   ...",
"..........         ..   ....................................          ..  ...",
"..........        ..    .....................................         ..  ...",
".........         ..   ......................................         ..  ...",
".........        ...   ......................................         ..  ...",
".........        ..    ......................................          .   ..",
"........         ..   ........................................         .   ..",
"........        ...   ........................................         ..  ..",
"........        ...  .........................................         .   ..",
".......         ..   .........................................             ..",
".......        ...   ..........................................         .  ..",
"......         ...  ...........................................         .   .",
"......        ....  ...........................................             .",
"......        ...   ...........................................             .",
".....         ...  ............................................             .",
".....         ...  .............................................            .",
".....        ....  .............................................            .",
".....        ....  .............................................            .",
"....         ...   .............................................            .",
"....        ..... ..............................................            .",
"....        ..... ..............................................            .",
"....        ....  ..............................................            .",
"...         ....  ..............................................            .",
"...        .....  ..............................................            .",
"...        .....  ..............................................            .",
"...        .....  ...............................................           .",
"..         .....  ...............................................           .",
"..         .....................................................            .",
"..         .....................................................            .",
"..        ......................................................            .",
"..        .......................................................           .",
"..        ......................................................            .",
"..        ......................................................            .",
"..        ......................................................            .",
".         ......................................................           ..",
".         ......................................................           ..",
"..        ......................................................           ..",
"..       .......................................................           ..",
".        .......................................................           ..",
".        .......................................................           ..",
".         ......................................................           ..",
".        ......................................................            ..",
".        ......................................................            ..",
".        ......................................................           ...",
".        ......................................................           ...",
".        ......................................................           ...",
".        ......................................................           ...",
".        ......................................................           ...",
".         ....................................................           ....",
".         ....................................................           ....",
".         ....................................................           ....",
".         ....................................................           ....",
".         ....................................................          .....",
".         ...................................................           .....",
"..        ...................................................           .....",
"..        ...................................................           .....",
"..        ..................................................           ......",
"..         .................................................           ......",
"..         .................................................           ......",
"..         .................................................           ......",
"..         ................................................           .......",
"..         ................................................           .......",
"..          ..............................................            .......",
"...         ..............................................           ........",
"...         ..............................................           ........",
"...          ............................................            ........",
"...          ............................................           .........",
"...          .....................................  ....            .........",
"....          .................................... .....           ..........",
"....          ...................................  ....            ..........",
"....           .................................  .....            ..........",
"....           ................................  ......           ...........",
".....           ..............................   .....           ............",
".....           ..............................  .....            ............",
".....            ............................   .....            ............",
"......            ..........................   .....            .............",
"......             .......................    .....            ..............",
"......              .....................    ......            ..............",
".......              ...................    ......            ...............",
".......               ................     ......             ...............",
"........                 ...........      .......            ................",
"........                    .....        .......             ................",
".........                               .......             .................",
".........                              .......             ..................",
"..........                           ........             ...................",
"..........                         .........             ....................",
"...........        .             ..........             .....................",
"............       ...         ..........               .....................",
"............        ....................               ......................",
".............         ................               ........................",
"..............          ............                .........................",
"...............            .....                   ..........................",
"................                                  ...........................",
".................                               .............................",
"..................                             ..............................",
"....................                         ................................",
"......................                      .................................",
"........................                  ...................................",
"..........................             ......................................",
"................................   ..........................................",
".............................................................................",
".............................................................................",
".............................................................................",
".............................................................................",
".............................................................................",
".............................................................................",
".............................................................................",
"............................................................................."
};
