/* XPM */
static char *_519378537649[] = {
/* columns rows colors chars-per-pixel */
"128 84 2 1 ",
"  c black",
". c None",
/* pixels */
"................................................................................................................................",
"................................................................................................................................",
"................................................................................................................................",
"................................................................................................................................",
"................................................................................................................................",
"................................................................................................................................",
"................................................................................................................................",
"................................................................................................................................",
"...............................................................................................................       ..........",
".............................................................................................................          .........",
"......................................................................................     .................             .......",
"....................................................................................        ...............               ......",
"..................................................................................           .............                ......",
".................................................................................             ............                 .....",
"...............................................................................                ...........                 .....",
".............................................................................                   .........                  .....",
"............................................................................                     ........                  .....",
"...........................................................................            .          .......                  .....",
"..........................................................................           .....         ......                  .....",
"..........................................................................          .......          .....                 .....",
"..........................................................................        ..........          ....                 .....",
"...........................................................................     .............          ...                ......",
"..............................................................................................          ...              .......",
".............................................................................................            ...             .......",
"............................................................................................              ...          .........",
"...........................................................................................                ....      ...........",
"..........................................................................................                  ....................",
".........................................................................................                    ...................",
"........................................................................................                      ..................",
".......................                                ................................                        .................",
".................                                       ..............................                          ................",
".................                                       .............................                           ................",
".................                                      .......    .................                             ................",
".............................................................      ...............                               ...............",
"............................................................       ..............                                ...............",
"............................................................        ............                                 ...............",
"............................................................         ..........                          .       ...............",
"............................................................         .........                          ..       ...............",
".............................................................         .......                          ....      ...............",
".............................................................         ......                          .....       ..............",
"...                                               ............         ....                          ......       ..............",
"..                                                 ............         ..                          .......       ..............",
"..                                                 ............                                    ........       ..............",
"....                                              ..............                   ..             .........        .............",
"................................................................                  ....           ...........        ............",
".................................................................                .....          ............          ..........",
".................................................................               .......         ............           .........",
"..................................................................             .........         ............           ........",
"...................................................................           ..........          ............            ......",
"...................................................................          ............         ..............           .....",
"...............................................        .............       ..............          ..............          .....",
"................................                        .............     ................         ...............         .....",
"................................                        ...................................         ................       .....",
"................................                        ...................................          ................      .....",
"..................................   .......................................................         ..................   ......",
"............................................................................................          ..........................",
".............................................................................................         ..........................",
".............................................................................................         ..........................",
"............................................................................................          ..........................",
"...........................................................................................           ..........................",
"..........................................................................................           ...........................",
".........................................................................................            ...........................",
"........................................................................................            ............................",
"......................................................................................             .............................",
".....................................................................................            ...............................",
"....................................................................................            ................................",
"...................................................................................            .................................",
"..................................................................................            ..................................",
".................................................................................            ...................................",
"................................................................................            ....................................",
"...............................................................................            .....................................",
"..............................................................................           .......................................",
"..............................................................................          ........................................",
".............................................................................          .........................................",
"..............................................................................        ..........................................",
"..............................................................................       ...........................................",
"...............................................................................    .............................................",
"................................................................................................................................",
"................................................................................................................................",
"................................................................................................................................",
"................................................................................................................................",
"................................................................................................................................",
"................................................................................................................................",
"................................................................................................................................"
};
